<?xml version="1.0" encoding="utf-8"?>
<!-- Generator: Adobe Illustrator 16.0.3, SVG Export Plug-In . SVG Version: 6.00 Build 0)  -->
<!DOCTYPE svg PUBLIC "-//W3C//DTD SVG 1.1//EN" "http://www.w3.org/Graphics/SVG/1.1/DTD/svg11.dtd">
<svg version="1.1" id="Layer_2" xmlns="http://www.w3.org/2000/svg" xmlns:xlink="http://www.w3.org/1999/xlink" x="0px" y="0px"
	 width="84px" height="84px" viewBox="0 0 84 84" enable-background="new 0 0 84 84" xml:space="preserve">
<g>
	<path fill="#FFCD56" d="M42,1C18.914,1-0.023,19.746-0.023,42.87c0,11.819,4.523,22.491,12.523,30.104V50.881l-4.422,2.065
		L6.266,48.66l35.681-15.903L77.591,48.66l-1.707,4.286L71.5,50.901v21.973c7-7.605,12.471-18.237,12.471-30.004
		C83.971,19.746,65.082,1,42,1z M69.283,17.552c-0.244,0.275-0.549,0.547-0.92,0.815c-0.381,0.267-0.789,0.527-1.227,0.77
		c-0.438,0.244-0.84,0.449-1.215,0.614c-2.109,0.425-4.074,0.843-5.92,1.258c-1.836,0.4-3.602,0.62-5.266,0.886L49.783,32.5H46.5
		v-6.252L44.672,24.5H31.863l-0.408,2.051l-1.209,0.33l-2.831-3.04c-1.023,0-1.915-0.417-1.915-1.173v-0.241l-4.485-4.303
		l1.011-0.649l5.475,2.111v-3.003l1.535-0.245l4.898,3.812l5.571-1.065L23.146,9.02c0.656-0.867,1.458-1.297,2.374-1.297
		c0.33,0,0.521,0.025,0.572,0.078l25.71,9.185c2.594-0.55,4.549-0.939,5.842-1.184c1.303-0.245,2.01-0.392,2.111-0.438
		c1.25-0.443,2.158-0.734,2.758-0.889c0.6-0.173,0.92-0.247,0.982-0.247c0.426,0,1.561,0.342,3.396,1.046l1.623,0.578
		c0.758,0.205,1.139,0.533,1.139,0.961C69.654,17.034,69.533,17.278,69.283,17.552z"/>
	<path fill="#FFCD56" d="M32.029,45.665c0,1.812-1.467,3.289-3.281,3.289s-3.285-1.478-3.285-3.289c0-1.816,1.471-3.287,3.285-3.287
		S32.029,43.849,32.029,45.665z M29.094,68.175l0.703,12.121c0,0.429,0.35,0.774,0.771,0.774c0.426,0,0.77-0.346,0.77-0.774
		l0.658-12.121h2.139l-2.211-13.596l4.453,8.884c0.168,0.396,0.619,0.587,1.014,0.415c0.387-0.162,0.574-0.618,0.406-1.009
		c0,0-3.264-8.852-4.072-10.496c-0.805-1.648-1.6-2.652-4.664-2.652h-0.629c-3.057,0-3.855,1.004-4.662,2.652
		c-0.803,1.645-4.078,10.496-4.078,10.496c-0.162,0.391,0.02,0.847,0.41,1.009c0.393,0.172,0.842-0.02,1.01-0.415l4.459-8.884
		L23.35,68.175h2.141l0.664,12.121c0,0.429,0.348,0.774,0.77,0.774c0.43,0,0.773-0.346,0.773-0.774l0.658-12.121H29.094z
		 M55.26,42.368c-1.818,0-3.289,1.472-3.289,3.287c0,1.819,1.471,3.291,3.289,3.291c1.807,0,3.271-1.472,3.271-3.291
		C58.531,43.84,57.066,42.368,55.26,42.368z M58.656,61.719l0.221-7.146l4.01,8.886c0.164,0.396,0.619,0.578,1.01,0.414
		c0.389-0.165,0.578-0.618,0.408-1.018c0,0-2.82-8.848-3.627-10.492c-0.803-1.648-2.049-2.651-5.109-2.651h-0.629
		c-3.059,0-4.313,1.003-5.113,2.651c-0.805,1.645-3.625,10.492-3.625,10.492c-0.168,0.399,0.016,0.853,0.408,1.018
		c0.395,0.164,0.846-0.019,1.008-0.414l4.012-8.886l0.221,7.146l-0.631,17.966c-0.053,0.715,0.482,1.333,1.193,1.386
		c0.033,0,0.066,0,0.09,0c0.674,0,1.242-0.522,1.291-1.2l1.457-13.893l1.463,13.893c0.047,0.678,0.613,1.2,1.287,1.2
		c0.031,0,0.063,0,0.09,0c0.711-0.053,1.244-0.671,1.197-1.386l-0.635-17.966H58.656z M41.998,62.351
		c-1.113,0-2.014,0.904-2.014,2.015c0,1.115,0.9,2.016,2.014,2.016c1.111,0,2.016-0.9,2.016-2.016
		C44.014,63.255,43.109,62.351,41.998,62.351z M41.998,74.232c0,0,0.906,6.302,0.908,6.307c0.121,0.308,0.412,0.531,0.762,0.531
		c0.365,0,0.666-0.242,0.775-0.566c0.01-0.02,0.027-0.393,0.01-0.459l-0.373-7.746l0.115-2.661c0.105-0.907,0.125-0.637,1.152-1.25
		c1.049-0.63,2.836-3.399,2.922-3.538c0.084-0.14,0.248-0.381,0.281-0.538c0.049-0.279-0.133-0.54-0.41-0.596
		c-0.205-0.036-0.385,0.074-0.52,0.218c-0.137,0.149-2.193,2.889-3.73,3.15c-0.344-0.051-0.719-0.229-1.699-0.229h-0.389
		c-0.977,0-1.35,0.178-1.697,0.229c-1.541-0.262-3.596-3.001-3.732-3.15c-0.133-0.144-0.309-0.254-0.52-0.218
		c-0.275,0.056-0.457,0.316-0.406,0.596c0.031,0.157,0.197,0.398,0.281,0.538c0.086,0.139,1.871,2.908,2.918,3.538
		c1.031,0.613,1.051,0.343,1.156,1.25l0.111,2.661l-0.367,7.746c-0.021,0.066,0,0.439,0.008,0.459
		c0.111,0.324,0.408,0.566,0.773,0.566c0.348,0,0.645-0.224,0.762-0.531C41.094,80.534,41.998,74.232,41.998,74.232"/>
</g>
</svg>
