<?xml version="1.0" encoding="utf-8"?>
<!-- Generator: Adobe Illustrator 16.0.0, SVG Export Plug-In . SVG Version: 6.00 Build 0)  -->
<!DOCTYPE svg PUBLIC "-//W3C//DTD SVG 1.1//EN" "http://www.w3.org/Graphics/SVG/1.1/DTD/svg11.dtd">
<svg version="1.1" xmlns="http://www.w3.org/2000/svg" xmlns:xlink="http://www.w3.org/1999/xlink" x="0px" y="0px" width="100px"
	 height="100px" viewBox="0 0 100 100" enable-background="new 0 0 100 100" xml:space="preserve">
<g id="background">
</g>
<g id="arrow">
</g>
<g id="Layer_2">
	<g>
		<path fill="#FFFFFF" d="M50,0C22.386,0,0,22.386,0,50c0,27.613,22.386,50,50,50s50-22.387,50-50C100,22.386,77.614,0,50,0z M71,29
			h3v13h7v3H71V29z M59.52,28.842c4.862-0.088,8.295,3.168,8.295,8.163c0,4.863-3.433,8.119-8.295,8.207
			c-4.797,0-8.229-3.256-8.229-8.119C51.291,32.098,54.723,28.842,59.52,28.842z M51.049,51l2.926,11h0.045l3.498-11h2.729l3.433,11
			h0.044l3.059-11h2.816l-4.533,16h-2.641l-3.608-12h-0.044l-3.608,12h-2.552l-4.599-16H51.049z M38,29h5.134
			c2.993,0,5.809,1.133,5.809,4.631c0,2.245-1.298,4.059-3.608,4.389L49.471,45h-3.344l-3.608-7H40v7h-2V29z M46.973,59.005
			c0,4.863-3.433,8.119-8.295,8.208c-4.797,0-8.229-3.257-8.229-8.119c0-4.995,3.432-8.251,8.229-8.251
			C43.54,50.754,46.973,54.011,46.973,59.005z M29.386,28.842c2.112,0,3.917,0.682,5.457,2.464l-2.156,1.584
			c-1.144-1.21-2.2-1.54-3.278-1.54c-3.212,0-5.347,2.464-5.347,5.567c0,3.322,2.134,5.787,5.347,5.787
			c1.254,0,2.464-0.572,3.499-1.892l2.288,1.628c-1.408,1.937-3.521,2.772-5.809,2.772c-4.797,0-8.229-3.256-8.229-8.119
			C21.157,32.098,24.589,28.842,29.386,28.842z M7.876,43.1l2.09-2.024c0.682,1.034,1.848,1.628,3.081,1.628
			c1.276,0,2.728-0.704,2.728-2.134c0-3.411-7.393-1.452-7.393-7.019c0-3.212,2.86-4.708,5.743-4.708
			c1.628,0,3.256,0.462,4.466,1.606l-2.024,2.134c-0.594-0.836-1.65-1.232-2.729-1.232c-1.276,0-2.552,0.572-2.552,2.002
			c0,3.125,7.393,1.342,7.393,6.887c0,3.345-2.641,4.973-5.699,4.973C11.044,45.212,9.152,44.618,7.876,43.1z M14,67V51h6.243
			c4.093,0,7.921,2.719,7.921,8c0,5.324-4.511,8-8.251,8H14z M50,92.804L23.322,77.371l3.005-5.193L50,85.872l23.673-13.694
			l3.004,5.193L50,92.804z M86,67h-3.622L75,55.504V67h-3V51h3.535L83,62.869V51h3V67z M83,45V29h3v13h7v3H83z"/>
		<path fill="#FFFFFF" d="M38.699,53.351c-3.212,0-5.347,2.464-5.347,5.566c0,3.323,2.134,5.787,5.347,5.787
			c3.234,0,5.369-2.464,5.369-5.787C44.068,55.814,41.934,53.351,38.699,53.351z"/>
		<path fill="#FFFFFF" d="M19.407,54H17v10h1.945c3.477,0,6.315-1.215,6.315-5S22.796,54,19.407,54z"/>
		<path fill="#FFFFFF" d="M59.542,42.704c3.234,0,5.368-2.464,5.368-5.787c0-3.103-2.134-5.567-5.368-5.567
			c-3.213,0-5.347,2.464-5.347,5.567C54.195,40.239,56.329,42.704,59.542,42.704z"/>
		<path fill="#FFFFFF" d="M46.039,33.956c0-1.848-1.716-1.956-3.146-1.956H40v4h2.65C44.212,36,46.039,35.98,46.039,33.956z"/>
	</g>
</g>
</svg>
