<?xml version="1.0" encoding="utf-8"?>
<!-- Generator: Adobe Illustrator 16.0.0, SVG Export Plug-In . SVG Version: 6.00 Build 0)  -->
<!DOCTYPE svg PUBLIC "-//W3C//DTD SVG 1.1//EN" "http://www.w3.org/Graphics/SVG/1.1/DTD/svg11.dtd">
<svg version="1.1" xmlns="http://www.w3.org/2000/svg" xmlns:xlink="http://www.w3.org/1999/xlink" x="0px" y="0px" width="100px"
	 height="100px" viewBox="0 0 100 100" enable-background="new 0 0 100 100" xml:space="preserve">
<g id="Layer_1">
	<g id="background">
	</g>
	<g id="arrow">
	</g>
	<g id="Layer_2">
		<g>
			<path d="M50,0C22.386,0,0,22.386,0,50c0,27.613,22.386,50,50,50c27.613,0,50-22.387,50-50C100,22.386,77.613,0,50,0z"/>
		</g>
	</g>
</g>
<g id="Layer_3">
	<g>
		<path fill="#FFFFFF" d="M17.083,32.218c-0.621-0.874-1.725-1.288-2.852-1.288c-1.333,0-2.667,0.598-2.667,2.092
			c0,3.265,7.727,1.403,7.727,7.197c0,3.496-2.759,5.197-5.956,5.197c-2.024,0-4.001-0.621-5.335-2.208l2.185-2.116
			c0.713,1.081,1.932,1.702,3.219,1.702c1.333,0,2.852-0.736,2.852-2.23c0-3.564-7.727-1.518-7.727-7.335
			c0-3.357,2.989-4.921,6.002-4.921c1.701,0,3.403,0.483,4.668,1.679L17.083,32.218z"/>
		<path fill="#FFFFFF" d="M33.118,32.54c-1.196-1.265-2.299-1.609-3.426-1.609c-3.357,0-5.588,2.575-5.588,5.817
			c0,3.472,2.23,6.048,5.588,6.048c1.311,0,2.576-0.598,3.656-1.978l2.392,1.702c-1.472,2.023-3.679,2.897-6.071,2.897
			c-5.013,0-8.6-3.403-8.6-8.485c0-5.22,3.587-8.623,8.6-8.623c2.208,0,4.093,0.713,5.703,2.575L33.118,32.54z"/>
		<path fill="#FFFFFF" d="M37.568,28.723h5.657c3.127,0,6.071,1.012,6.071,4.668c0,2.345-1.356,4.07-3.771,4.415l4.323,7.197h-3.495
			l-3.771-6.898h-2.116v6.898h-2.897V28.723z M42.719,35.622c1.633,0,3.542-0.138,3.542-2.253c0-1.932-1.793-2.162-3.289-2.162
			h-2.506v4.415H42.719z"/>
		<path fill="#FFFFFF" d="M59.541,28.309c5.082-0.092,8.668,3.311,8.668,8.531c0,5.082-3.586,8.485-8.668,8.577
			c-5.014,0-8.601-3.403-8.601-8.485C50.94,31.712,54.527,28.309,59.541,28.309z M59.563,42.796c3.38,0,5.61-2.576,5.61-6.048
			c0-3.242-2.23-5.817-5.61-5.817c-3.357,0-5.588,2.575-5.588,5.817C53.976,40.22,56.206,42.796,59.563,42.796z"/>
		<path fill="#FFFFFF" d="M70.877,28.723h2.896v13.659h6.922v2.622h-9.818V28.723z"/>
		<path fill="#FFFFFF" d="M82.592,28.723h2.898v13.659h6.922v2.622h-9.82V28.723z"/>
		<path fill="#FFFFFF" d="M13.352,50.723h6.416c4.277,0,8.278,2.621,8.278,8.141c0,5.564-4.714,8.141-8.623,8.141h-6.071V50.723z
			 M18.411,64.382c3.633,0,6.6-1.563,6.6-5.519s-2.576-5.52-6.117-5.52h-2.645v11.038H18.411z"/>
		<path fill="#FFFFFF" d="M38.454,50.309c5.082-0.092,8.669,3.311,8.669,8.531c0,5.082-3.587,8.485-8.669,8.578
			c-5.013,0-8.6-3.404-8.6-8.486C29.854,53.713,33.441,50.309,38.454,50.309z M38.477,64.796c3.38,0,5.611-2.575,5.611-6.048
			c0-3.242-2.23-5.817-5.611-5.817c-3.357,0-5.588,2.575-5.588,5.817C32.889,62.221,35.12,64.796,38.477,64.796z"/>
		<path fill="#FFFFFF" d="M47.628,50.723h3.173l3.058,11.728h0.047l3.656-11.728h2.852l3.587,11.728h0.046l3.196-11.728h2.943
			l-4.737,16.281h-2.76l-3.771-12.395h-0.046l-3.771,12.395h-2.667L47.628,50.723z"/>
		<path fill="#FFFFFF" d="M71.973,50.723h3.842l7.887,12.096h0.045V50.723h2.898v16.281h-3.68l-8.049-12.486h-0.045v12.486h-2.898
			V50.723z"/>
	</g>
	<g id="background_1_">
	</g>
	<g id="arrow_1_">
	</g>
	<path fill="#FFFFFF" d="M50,92.805L23.322,77.371l3.005-5.193L50,85.872l23.673-13.694l3.004,5.193L50,92.805z"/>
</g>
</svg>
