<?xml version="1.0" encoding="utf-8"?>
<!-- Generator: Adobe Illustrator 16.0.3, SVG Export Plug-In . SVG Version: 6.00 Build 0)  -->
<!DOCTYPE svg PUBLIC "-//W3C//DTD SVG 1.1//EN" "http://www.w3.org/Graphics/SVG/1.1/DTD/svg11.dtd">
<svg version="1.1" xmlns="http://www.w3.org/2000/svg" xmlns:xlink="http://www.w3.org/1999/xlink" x="0px" y="0px" width="69px"
	 height="36px" viewBox="0 0 69 36" enable-background="new 0 0 69 36" xml:space="preserve">
<g id="Layer_2">
	<g>
		<rect x="0.077" fill="#002A5B" width="69" height="36"/>
	</g>
</g>
<g id="Layer_1">
	<g>
		<path fill="#00B8F1" d="M19.077,9.537c0-2.465,1.725-4.371,4.229-4.371c1.181,0,1.834,0.36,2.758,1.062l2.869-3.655
			C27.654,1.519,26.118,1,24.496,1c-2.203,0-3.418,0.963-5.418,2.594V1h-4v21h4V9.537z"/>
		<polygon fill="#00B8F1" points="36.23,22 39.882,22 44.3,7.361 48.764,22 52.424,22 58.946,1 54.477,1 50.595,15.523 45.9,1 
			42.752,1 38.176,15.523 34.102,1 29.711,1 29.896,1.6 		"/>
	</g>
	<g>
		<path fill="#00B8F1" d="M68.338,14.554C68.334,14.532,68.323,14.474,68.338,14.554C68.33,14.515,68.349,14.613,68.338,14.554z"/>
		<path fill="#00B8F1" d="M68.338,14.554C68.343,14.581,68.335,14.535,68.338,14.554C68.333,14.529,68.343,14.581,68.338,14.554z"/>
		<path fill="#00B8F1" d="M68.338,14.554C68.354,14.641,68.362,14.688,68.338,14.554L68.338,14.554z"/>
		<path fill="#00B8F1" d="M68.338,14.554c-0.662-3.479-4.512-5.611-7.696-6.172c3.203,1.341,6.295,4.129,4.816,7.856
			c-1.178,2.969-4.109,5.111-6.729,6.725c-4.06,2.502-8.594,4.23-13.164,5.536c-5.438,1.554-11.073,2.521-16.722,2.823
			c-3.79,0.204-7.626,0.118-11.374-0.514c-2.771-0.466-5.68-1.211-8.029-2.817c-1.996-1.366-3.315-3.482-2.601-5.965
			c1.032-3.586,4.745-6.021,7.8-7.734c-4.846,0.926-9.392,3.367-12.219,7.538c-1.854,2.735-1.896,5.945,0.555,8.272
			c2.398,2.277,5.875,3.303,9.034,3.95c4.675,0.956,9.516,1.089,14.268,0.833c10.29-0.556,20.874-2.878,30.157-7.438
			c3.328-1.635,6.665-3.621,9.213-6.357C67.293,19.325,68.795,17.072,68.338,14.554z"/>
	</g>
</g>
</svg>
