<?xml version="1.0" encoding="utf-8"?>
<!-- Generator: Adobe Illustrator 16.0.3, SVG Export Plug-In . SVG Version: 6.00 Build 0)  -->
<!DOCTYPE svg PUBLIC "-//W3C//DTD SVG 1.1//EN" "http://www.w3.org/Graphics/SVG/1.1/DTD/svg11.dtd">
<svg version="1.1" id="youtube_copy_2" xmlns="http://www.w3.org/2000/svg" xmlns:xlink="http://www.w3.org/1999/xlink" x="0px"
	 y="0px" width="36px" height="36px" viewBox="0 0 36 36" enable-background="new 0 0 36 36" xml:space="preserve">
<g>
	<polygon fill="#026CB6" points="14.697,22.406 23.342,17.925 14.696,13.414 	"/>
	<path fill="#026CB6" d="M0,0v36h36V0H0z M34,19.462c0,2.589-0.318,5.181-0.318,5.181s-0.313,2.203-1.271,3.174
		c-1.217,1.274-2.58,1.281-3.205,1.358C24.727,29.498,18,29.507,18,29.507s-8.32-0.073-10.88-0.321
		c-0.711-0.131-2.31-0.094-3.528-1.367c-0.959-0.973-1.271-3.176-1.271-3.176S2,22.051,2,19.462v-2.428
		c0-2.589,0.32-5.179,0.32-5.179S2.632,9.65,3.591,8.679c1.218-1.274,2.582-1.28,3.208-1.354C11.277,7,17.994,7,17.994,7h0.012
		c0,0,6.721,0,11.198,0.325c0.625,0.074,1.987,0.08,3.205,1.354c0.96,0.973,1.272,3.176,1.272,3.176S34,14.446,34,17.036V19.462z"/>
</g>
</svg>
