<?xml version="1.0" encoding="utf-8"?>
<!-- Generator: Adobe Illustrator 16.0.3, SVG Export Plug-In . SVG Version: 6.00 Build 0)  -->
<!DOCTYPE svg PUBLIC "-//W3C//DTD SVG 1.1//EN" "http://www.w3.org/Graphics/SVG/1.1/DTD/svg11.dtd">
<svg version="1.1" id="Layer_1" xmlns="http://www.w3.org/2000/svg" xmlns:xlink="http://www.w3.org/1999/xlink" x="0px" y="0px"
	 width="69px" height="36px" viewBox="0 0 69 36" enable-background="new 0 0 69 36" xml:space="preserve">
<path fill="#026CB6" d="M0,0v36h69.1V0H0z M34.1,1l4.1,14.5L42.8,1H45.9L50.6,15.5L54.5,1h4.4l-6.5,21H48.8L44.3,7.4L39.9,22h-3.7
	L29.9,1.6L29.7,1H34.1z M15.082,1h4v2.594C21.082,1.963,22.297,1,24.5,1c1.6,0,3.154,0.5,4.475,1.573l-2.869,3.655
	c-1-0.662-1.619-1.062-2.8-1.062c-2.504,0-4.229,1.906-4.229,4.371h0.005V22h-4V1z M65.674,21.139
	c-2.548,2.736-5.885,4.723-9.213,6.357c-9.283,4.561-19.867,6.882-30.157,7.438c-4.8,0.271-9.625,0.168-14.3-0.832
	c-3.1-0.647-6.602-1.647-9-3.951c-2.496-2.396-2.454-5.562-0.6-8.299c2.827-4.168,7.373-6.609,12.219-7.539
	c-3.055,1.713-6.768,4.148-7.8,7.734c-0.714,2.482,0.605,4.6,2.601,5.965c2.349,1.606,5.258,2.354,8.029,2.817
	c3.748,0.632,7.584,0.718,11.374,0.514c5.649-0.278,11.284-1.245,16.722-2.8c4.57-1.307,9.104-3.034,13.164-5.536
	c2.62-1.614,5.551-3.756,6.729-6.725c1.5-3.8-1.596-6.6-4.799-7.9c3.187,0.561,7.033,2.693,7.695,6.172
	c0.016,0.044,0.057,0.135-0.031,0.008c0,0.001-0.002,0.002-0.002,0.003c-0.002,0.002-0.005,0-0.005-0.011
	C68.8,17.1,67.293,19.3,65.674,21.139z"/>
</svg>
